<?xml version="1.0" encoding="UTF-8"?>
<svg width="323px" height="70px" viewBox="0 0 323 70" version="1.1" xmlns="http://www.w3.org/2000/svg" xmlns:xlink="http://www.w3.org/1999/xlink">
    <title>Artboard</title>
    <defs>
        <circle id="path-1" cx="18" cy="18" r="18"></circle>
    </defs>
    <g stroke="none" stroke-width="1" fill="none" fill-rule="evenodd">
        <g id="dvs" fill="#181716" fill-rule="nonzero">
            <g style="mix-blend-mode: multiply;">
                <path d="M240.27,48.24 L240.27,40.81 C240.27,34.46 242.11,30.4 247.73,30.4 C253.35,30.4 255.18,34.46 255.18,40.81 L255.18,48.26 C255.18,54.62 253.25,58.67 247.73,58.67 C242.21,58.67 240.27,54.67 240.27,48.26 M227.2,48.73 C227.2,61.89 235.85,69.81 247.73,69.81 C259.61,69.81 268.26,61.89 268.26,48.73 L268.26,40.33 C268.26,27.16 259.6,19.25 247.73,19.25 C235.86,19.25 227.2,27.16 227.2,40.33 L227.2,48.73 Z M176.84,68.59 L189.91,68.59 L189.91,39.96 C189.91,33.61 192.49,30.38 196.63,30.38 C200.77,30.38 203.17,33.61 203.17,39.96 L203.17,68.59 L216.33,68.59 L216.33,39.5 C216.33,26.24 207.4,19.25 196.63,19.25 C185.86,19.25 176.84,26.25 176.84,39.5 L176.84,68.59 Z M151.25,68.59 L164.41,68.59 L164.41,20.44 L151.25,20.44 L151.25,68.59 Z M104.94,48.71 C104.94,63.62 113.94,69.79 126.21,69.79 C131.021922,69.737969 135.798663,68.9626334 140.38,67.49 L137.53,56.81 C134.104042,57.9180831 130.538942,58.537515 126.94,58.65 C121.42,58.65 118.11,56.25 118.11,48.71 L118.11,40.33 C118.11,32.78 121.42,30.38 126.94,30.38 C130.539833,30.491701 134.105506,31.1145995 137.53,32.23 L140.29,21.55 C135.742843,20.063944 130.993675,19.2881566 126.21,19.25 C113.96,19.25 104.94,25.41 104.94,40.33 L104.94,48.71 Z M80.45,68.59 L93.62,68.59 L93.62,20.44 L80.45,20.44 L80.45,68.59 Z M54.45,68.59 L67.57,68.59 L67.57,3.55271368e-15 L54.4,1.81 L54.45,68.59 Z M40.78,55.81 C35.8595738,57.4937311 30.6904116,58.3355371 25.49,58.3 C18.13,58.3 13.49,54.3 13.49,43.02 L13.49,31.86 C13.49,20.63 18.09,16.67 25.49,16.67 C30.6778087,16.69381 35.8323888,17.4995292 40.78,19.06 L43.36,8.06 C37.5502876,6.15543807 31.4739197,5.18997073 25.36,5.19985749 C10.86,5.16 0,13.54 0,30.75 L0,44.19 C0,61.41 10.86,69.8100773 25.4,69.8100773 C31.5139197,69.8200293 37.5902876,68.8545619 43.4,66.95 L40.78,55.81 Z" id="Shape"></path>
                <path d="M248.08,15.81 C253.57,15.81 258.19,17.95 258.19,14 C258.19,9.86 253.44,8.19 248.08,8.19 C242.72,8.19 238,9.86 238,14 C238,18.14 242.58,15.81 248.08,15.81" id="Path"></path>
            </g>
        </g>
        <g  transform="translate(286.000000, 2.000000)">
            <mask id="mask-2-clcik" fill="white">
                <use xlink:href="#path-1"></use>
            </mask>
            <circle stroke="#E6E6E6" cx="18" cy="18" r="18.5"></circle>
            <rect fill="#EC2323" mask="url(#mask-2)" x="0" y="0" width="35" height="12"></rect>
            <rect id="Rectangle-Copy-sdfgsdf" fill="#EC2323" mask="url(#mask-2)" x="0" y="24" width="35" height="12"></rect>
        </g>
    </g>
</svg>