<?xml version="1.0" encoding="UTF-8"?>
<svg width="102px" height="16px" viewBox="0 0 102 16" version="1.1" xmlns="http://www.w3.org/2000/svg" xmlns:xlink="http://www.w3.org/1999/xlink">
    <!-- Generator: Sketch 59.1 (86144) - https://sketch.com -->
    <title>Artboard</title>
    <desc>Created with Sketch.</desc>
    <defs>
        <linearGradient x1="50.0905797%" y1="131.595906%" x2="50.0905797%" y2="0.409356725%" id="linearGradient-1">
            <stop stop-color="#1F9A94" offset="0%"></stop>
            <stop stop-color="#1F53A1" offset="100%"></stop>
        </linearGradient>
        <linearGradient x1="49.9611765%" y1="81.340625%" x2="49.9611765%" y2="-619.6875%" id="linearGradient-2">
            <stop stop-color="#1F9A94" offset="0%"></stop>
            <stop stop-color="#1F53A1" offset="100%"></stop>
        </linearGradient>
    </defs>
    <g id="Artboard" stroke="none" stroke-width="1" fill="none" fill-rule="evenodd">
        <g id="logo_s">
            <path d="M0.0750971663,10.2617525 L0.695068851,9.22171004 C0.832840336,9.01370154 1.10838331,9.01370154 1.24615479,9.08303771 C1.31504054,9.15237387 2.69275539,10.1230802 3.72604153,10.1230802 C4.62155619,10.1230802 5.24152787,9.56839087 5.24152787,8.80569304 C5.24152787,7.97365905 4.55267044,7.34963356 3.10606985,6.79494424 C1.52169776,6.17091875 0.00621142355,5.13087626 0.00621142355,3.18946362 C0.00621142355,1.73340414 1.10838331,0 3.72604153,0 C5.4481851,0 6.68812847,0.901370154 7.03255718,1.10937865 C7.17032867,1.17871482 7.23921441,1.52539565 7.10144292,1.66406798 L6.55035698,2.6347743 C6.4125855,2.84278279 6.20592827,2.98145512 5.99927104,2.84278279 C5.86149955,2.77344663 4.62155619,1.94141264 3.65715579,1.94141264 C2.69275539,1.94141264 2.21055519,2.56543813 2.21055519,3.12012746 C2.21055519,3.88282528 2.83052688,4.4375146 4.13935599,4.99220393 C5.72372807,5.61622942 7.58364312,6.58693574 7.58364312,8.80569304 C7.58364312,10.5390972 6.13704253,12.133829 3.79492727,12.133829 C1.72835499,12.133829 0.488411623,11.1631227 0.143982909,10.8164418 C0.00621142355,10.6084334 -0.0626743192,10.5390972 0.0750971663,10.2617525 Z" id="Path" fill="#333333"></path>
            <path d="M13.2845644,2.00743494 L10.6006142,2.00743494 C10.3829966,2.00743494 10.2379182,1.87360595 10.2379182,1.67286245 L10.2379182,0.334572491 C10.2379182,0.200743494 10.3829966,0 10.6006142,0 L18.2172297,0 C18.4348473,0 18.5799257,0.133828996 18.5799257,0.334572491 L18.5799257,1.67286245 C18.5799257,1.80669145 18.4348473,2.00743494 18.2172297,2.00743494 L15.5332795,2.00743494 L15.5332795,11.0408922 C15.5332795,11.1747212 15.3882011,11.3754647 15.1705835,11.3754647 L13.5747212,11.3754647 C13.4296428,11.3754647 13.2120252,11.2416357 13.2120252,11.0408922 L13.2120252,2.00743494 L13.2845644,2.00743494 Z" id="Path" fill="#333333"></path>
            <path d="M19.7732046,11.6400104 L25.1006161,0.211636552 C25.1716483,0.141091035 25.2426804,0 25.3847447,0 L25.526809,0 C25.6688733,0 25.7399055,0.0705455174 25.8109376,0.211636552 L31.0673169,11.6400104 C31.1383491,11.8516469 31.0673169,12.0632835 30.7831883,12.0632835 L29.2915131,12.0632835 C29.0073845,12.0632835 28.9363524,11.992738 28.794288,11.7105559 L28.0129344,9.94691796 L22.8986194,9.94691796 L22.0462335,11.7811014 C21.9752014,11.9221924 21.8331371,12.133829 21.5490085,12.133829 L20.0573332,12.133829 C19.7732046,12.133829 19.6311403,11.8516469 19.7732046,11.6400104 Z M27.1605485,8.04218899 L25.4557769,4.30327656 L25.3847447,4.30327656 L23.7510052,8.04218899 L27.1605485,8.04218899 Z" id="Shape" fill="#333333" fill-rule="nonzero"></path>
            <path d="M39.4094958,0 C41.033108,0 42.509119,0.557877195 43.7637284,1.53416229 C43.9113296,1.67363159 43.9113296,1.88283553 43.7637284,2.02230483 L42.6567201,3.13805922 C42.509119,3.27752852 42.3615179,3.27752852 42.2139168,3.13805922 C41.4759113,2.51044738 40.5165041,2.16177413 39.5570969,2.16177413 C37.3430803,2.16177413 35.571867,3.97487502 35.571867,6.0669145 C35.571867,8.15895398 37.3430803,9.90232022 39.5570969,9.90232022 C40.5903046,9.90232022 41.3283102,9.62338162 41.6973129,9.48391232 L41.6973129,8.08921933 L40.2951024,8.08921933 C40.0737008,8.08921933 39.9260996,7.94975003 39.9260996,7.81028073 L39.9260996,6.48532239 C39.9260996,6.27611845 40.0737008,6.13664915 40.2951024,6.13664915 L43.6899279,6.13664915 C43.837529,6.13664915 43.9851301,6.27611845 43.9851301,6.48532239 L43.9851301,10.739136 C43.9851301,10.8786053 43.9113296,10.94834 43.837529,11.0180746 C43.837529,11.0180746 41.9925152,12.133829 39.4094958,12.133829 C35.8670692,12.133829 32.9888476,9.48391232 32.9888476,6.13664915 C32.9888476,2.78938598 35.8670692,0 39.4094958,0 Z" id="Path" fill="#333333"></path>
            <path d="M47.4673442,0.352727587 C47.4673442,0.211636552 47.6064936,0 47.8152178,0 L54.6335391,0 C54.8422632,0 54.9814126,0.141091035 54.9814126,0.352727587 L54.9814126,1.76363794 C54.9814126,1.90472897 54.8422632,2.11636552 54.6335391,2.11636552 L49.6937349,2.11636552 L49.6937349,4.93818622 L53.8682173,4.93818622 C54.0073667,4.93818622 54.2160909,5.07927725 54.2160909,5.29091381 L54.2160909,6.70182415 C54.2160909,6.91346071 54.0769414,7.05455174 53.8682173,7.05455174 L49.6937349,7.05455174 L49.6937349,10.0174635 L54.6335391,10.0174635 C54.8422632,10.0174635 54.9814126,10.1585545 54.9814126,10.3701911 L54.9814126,11.7811014 C54.9814126,11.9221924 54.8422632,12.133829 54.6335391,12.133829 L47.7456431,12.133829 C47.5369189,12.133829 47.3977695,11.992738 47.3977695,11.7811014 L47.3977695,0.352727587 L47.4673442,0.352727587 Z" id="Path" fill="#333333"></path>
            <path d="M59.1524164,0.33655221 C59.1524164,0.201931326 59.2926618,0 59.4329073,0 L63.4299027,0 C66.7256709,0 69.3903346,2.55779679 69.3903346,5.65407712 C69.3903346,8.81766789 66.7256709,11.3754647 63.4299027,11.3754647 L59.4329073,11.3754647 C59.2926618,11.3754647 59.1524164,11.2408438 59.1524164,11.0389125 L59.1524164,0.33655221 Z M63.2896573,9.42346187 C65.4634618,9.42346187 67.0762846,7.80801126 67.0762846,5.72138756 C67.0762846,3.63476386 65.4634618,2.01931326 63.2896573,2.01931326 L61.3963436,2.01931326 L61.3963436,9.42346187 L63.2896573,9.42346187 Z" id="Shape" fill="#333333" fill-rule="nonzero"></path>
            <path d="M72.802974,0.334572491 C72.802974,0.200743494 72.9451673,0 73.1584572,0 L74.7225836,0 C74.864777,0 75.0780669,0.133828996 75.0780669,0.334572491 L75.0780669,11.0408922 C75.0780669,11.1747212 74.9358736,11.3754647 74.7225836,11.3754647 L73.1584572,11.3754647 C73.0162639,11.3754647 72.802974,11.2416357 72.802974,11.0408922 L72.802974,0.334572491 Z" id="Path" fill="#333333"></path>
            <path d="M94.4163569,0.352727587 C94.4163569,0.211636552 94.5567947,0 94.7674515,0 L101.648905,0 C101.859562,0 102,0.141091035 102,0.352727587 L102,1.76363794 C102,1.90472897 101.859562,2.11636552 101.648905,2.11636552 L96.6633622,2.11636552 L96.6633622,4.93818622 L100.876497,4.93818622 C101.016935,4.93818622 101.227592,5.07927725 101.227592,5.29091381 L101.227592,6.70182415 C101.227592,6.91346071 101.087154,7.05455174 100.876497,7.05455174 L96.6633622,7.05455174 L96.6633622,10.0174635 L101.648905,10.0174635 C101.859562,10.0174635 102,10.1585545 102,10.3701911 L102,11.7811014 C102,11.9221924 101.859562,12.133829 101.648905,12.133829 L94.7674515,12.133829 C94.5567947,12.133829 94.4163569,11.992738 94.4163569,11.7811014 L94.4163569,0.352727587 Z" id="Path" fill="#333333"></path>
            <g id="Group" transform="translate(78.490706, 0.000000)">
                <path d="M5.67368856,11.6145272 C5.74390748,11.6829577 5.81412639,11.8198188 5.95456423,11.8198188 L6.09500207,11.8198188 C6.2354399,11.8198188 6.30565882,11.7513882 6.37587774,11.6145272 L11.6422966,0.528781366 C11.7125155,0.323489777 11.6422966,0.118198188 11.3614209,0.118198188 L9.60594796,0.118198188 C9.46551012,0.118198188 9.32507228,0.186628717 9.32507228,0.323489777 L6.09500207,7.44026487 L5.95456423,7.44026487 L2.72449401,0.323489777 C2.72449401,0.255059247 2.58405618,0.118198188 2.44361834,0.118198188 L0.688145394,0.118198188 C0.407269723,0.118198188 0.266831888,0.323489777 0.407269723,0.528781366 L5.67368856,11.6145272 Z" id="Path" fill="url(#linearGradient-1)"></path>
                <path d="M11.6422966,13.7358736 L0.407269723,13.7358736 C0.266831888,13.7358736 0.0561751342,13.8727347 0.0561751342,14.0780263 L0.0561751342,15.5834979 C0.0561751342,15.720359 0.19661297,15.9256506 0.407269723,15.9256506 L11.6422966,15.9256506 C11.7827344,15.9256506 11.9933912,15.7887895 11.9933912,15.5834979 L11.9933912,14.0780263 C11.9231722,13.8727347 11.7827344,13.7358736 11.6422966,13.7358736 Z" id="Path" fill="url(#linearGradient-2)"></path>
            </g>
        </g>
    </g>
</svg>