<?xml version="1.0" encoding="utf-8"?>
<!-- Generator: Adobe Illustrator 23.1.1, SVG Export Plug-In . SVG Version: 6.00 Build 0)  -->
<svg version="1.1" id="Ebene_1" xmlns="http://www.w3.org/2000/svg" xmlns:xlink="http://www.w3.org/1999/xlink" x="0px" y="0px"
	 viewBox="0 0 226.4 131.8" style="enable-background:new 0 0 226.4 131.8;" xml:space="preserve">
<style type="text/css">
	.st0{fill:#1E1E1C;}
	.st1{fill:#E50548;}
</style>
<g>
	<path class="st0" d="M14.1,118.6h-4v9.9H7.9v-9.9H4.3v-1.7h9.4L14.1,118.6z"/>
	<path class="st0" d="M22.7,128.5v-4.9h-4.6v4.9h-2.2v-11.6l2.2-0.1v5h4.6v-4.9h2.2v11.6H22.7z"/>
	<path class="st0" d="M28,128.5v-11.6h6.9l0.3,1.7h-5.1v3.1H34l0.4,1.8h-4.2v3.3h5.6l0.4,1.7H28z"/>
	<path class="st0" d="M38.1,116.8h3.6c1.3,0,2.4,0.3,3.3,0.9c0.9,0.6,1.3,1.5,1.3,2.7c0,0.7-0.2,1.3-0.5,1.8
		c-0.4,0.5-0.8,0.9-1.4,1.2l2.9,5h-2.4l-2.5-4.4h-2.1v4.4h-2.2V116.8z M41.6,118.7h-1.4v3.6h1.4c0.7,0,1.3-0.1,1.7-0.4
		c0.4-0.3,0.6-0.7,0.6-1.3C44,119.3,43.2,118.7,41.6,118.7z"/>
	<path class="st0" d="M54.1,116.8l4.5,11.5l-2.2,0.3l-1-2.9h-4.4l-1,2.7h-2.2l4.5-11.6H54.1z M53.1,119.9l-1.5,4.1h3.1L53.1,119.9z"
		/>
	<path class="st0" d="M62.6,128.5h-2.2v-11.6H64c1.4,0,2.5,0.3,3.3,0.9c0.8,0.6,1.3,1.5,1.3,2.8c0,0.8-0.2,1.6-0.7,2.1s-1,1-1.7,1.3
		c-0.7,0.3-1.5,0.4-2.4,0.4h-1.3V128.5z M64,118.7h-1.4v3.9H64c0.7,0,1.2-0.2,1.6-0.5c0.4-0.3,0.6-0.8,0.7-1.4
		c0-0.7-0.2-1.2-0.6-1.5C65.3,118.8,64.7,118.7,64,118.7z"/>
	<path class="st0" d="M70.7,128.5v-11.6h2.2v11.6H70.7z"/>
	<path class="st0" d="M76,128.5v-11.6h6.9l0.3,1.7h-5.1v3.1H82l0.4,1.8h-4.2v3.3h5.6l0.4,1.7H76z"/>
	<path class="st0" d="M92.8,128.5v-4.9h-4.6v4.9h-2.2v-11.6l2.2-0.1v5h4.6v-4.9h2.2v11.6H92.8z"/>
	<path class="st0" d="M100.2,116.8v7.2c0,0.9,0.2,1.6,0.7,2.1c0.5,0.5,1.1,0.7,1.9,0.7s1.4-0.2,1.9-0.7c0.5-0.5,0.7-1.2,0.7-2.1
		v-7.2h2.2v7.4c0,0.8-0.2,1.6-0.6,2.3c-0.4,0.7-1,1.2-1.7,1.6c-0.7,0.4-1.6,0.6-2.5,0.6c-0.9,0-1.8-0.2-2.5-0.6
		c-0.7-0.4-1.3-0.9-1.7-1.6c-0.4-0.7-0.6-1.4-0.6-2.3l0-7.4H100.2z"/>
	<path class="st0" d="M110.5,128.5v-11.6h2.2l5.4,7.8v-7.8h2.2v11.6H118l-5.4-7.8v7.8H110.5z"/>
	<path class="st0" d="M127.8,128.5h-4.4v-11.6h4.4c1.2,0,2.2,0.2,3,0.7c0.8,0.5,1.4,1.2,1.8,2s0.6,1.9,0.6,3c0,1.8-0.5,3.3-1.4,4.3
		S129.5,128.4,127.8,128.5z M127.8,118.7h-2.3v7.9h2.2c1,0,1.7-0.3,2.3-1c0.5-0.6,0.8-1.7,0.8-3.1c0-1.2-0.2-2.2-0.7-2.9
		S128.9,118.7,127.8,118.7z"/>
	<path class="st0" d="M135.3,128.5v-11.6h6.9l0.3,1.7h-5.1v3.1h3.8l0.4,1.8h-4.2v3.3h5.6l0.4,1.7H135.3z"/>
	<path class="st0" d="M154.4,124.9l-2.8-3.6v7.1h-2.2v-11.6h1.4l3.9,5.4l3.6-5.4h1.4v11.6h-2.2v-6.7l-2.2,3.1L154.4,124.9z"/>
	<path class="st0" d="M162.8,128.5v-11.6h2.2v11.6H162.8z"/>
	<path class="st0" d="M176.5,118.6h-4v9.9h-2.2v-9.9h-3.5v-1.7h9.4L176.5,118.6z"/>
	<path class="st0" d="M189.2,128.5v-4.9h-4.6v4.9h-2.2v-11.6l2.2-0.1v5h4.6v-4.9h2.2v11.6H189.2z"/>
	<path class="st0" d="M194.4,128.5v-11.6h6.9l0.3,1.7h-5.1v3.1h3.8l0.4,1.8h-4.2v3.3h5.6l0.4,1.7H194.4z"/>
	<path class="st0" d="M204.5,116.8h3.6c1.3,0,2.4,0.3,3.3,0.9c0.9,0.6,1.3,1.5,1.3,2.7c0,0.7-0.2,1.3-0.5,1.8
		c-0.4,0.5-0.8,0.9-1.4,1.2l2.9,5h-2.4l-2.5-4.4h-2.1v4.4h-2.2V116.8z M208.1,118.7h-1.4v3.6h1.4c0.7,0,1.3-0.1,1.7-0.4
		c0.4-0.3,0.6-0.7,0.6-1.3C210.4,119.3,209.7,118.7,208.1,118.7z"/>
	<path class="st0" d="M223.6,128.5h-9.1l-0.3-1.7l6.6-8.2H215l-0.3-1.7h8.5l0.3,1.7l-6.8,8.2h6.7L223.6,128.5z"/>
</g>
<g>
	<path class="st0" d="M17.6,92.3l0.5-4.8H30v16.1c-1.3,0.7-2.9,1.3-4.7,1.7c-1.8,0.4-3.6,0.7-5.5,0.7c-3.3,0-6.2-0.7-8.6-2.2
		c-2.4-1.5-4.3-3.5-5.6-6.1c-1.3-2.6-2-5.4-2-8.5c0-3.3,0.7-6.2,2.2-8.8c1.5-2.6,3.5-4.6,6.1-6.1c2.6-1.5,5.5-2.2,8.7-2.2
		c1.2,0,2.6,0.2,4.4,0.5c1.7,0.4,3.2,0.9,4.6,1.6l-2,4.5c-0.9-0.3-1.3-0.4-1.3-0.4c-1.2-0.4-2.2-0.6-2.9-0.7s-1.6-0.2-2.7-0.2
		c-2,0-3.8,0.4-5.4,1.3c-1.6,0.9-2.9,2.2-3.8,4c-0.9,1.8-1.4,3.9-1.4,6.5c0,2.3,0.4,4.4,1.2,6.2c0.8,1.8,1.9,3.1,3.4,4.1
		c1.5,0.9,3.1,1.4,5,1.4c1.5,0,3.1-0.2,4.8-0.5v-8H17.6z"/>
	<path class="st0" d="M36.2,105.3V72.7h6.2v32.6H36.2z"/>
	<path class="st0" d="M50.6,72.7h10.2c3.8,0,6.9,0.9,9.3,2.6c2.4,1.7,3.6,4.2,3.6,7.5c0,2-0.5,3.7-1.5,5.1c-1,1.5-2.4,2.6-4.1,3.5
		l8,14h-6.6l-6.9-12.4h-5.9v12.4h-6.2V72.7z M60.6,77.9h-3.8v10h3.9c2,0,3.5-0.4,4.7-1.2c1.2-0.8,1.8-2,1.8-3.7
		C67.2,79.6,65,77.9,60.6,77.9z"/>
	<path class="st0" d="M95.2,72.7l12.7,32.3l-6.2,0.9l-2.9-8.2H86.3l-2.9,7.7h-6.2l12.7-32.6H95.2z M92.4,81.2l-4.3,11.4h8.6
		L92.4,81.2z"/>
	<path class="st0" d="M112.4,72.7h10.2c3.8,0,6.9,0.9,9.3,2.6c2.4,1.7,3.6,4.2,3.6,7.5c0,2-0.5,3.7-1.5,5.1c-1,1.5-2.4,2.6-4.1,3.5
		l8,14h-6.6l-6.9-12.4h-5.9v12.4h-6.2V72.7z M122.4,77.9h-3.8v10h3.9c2,0,3.5-0.4,4.7-1.2c1.2-0.8,1.8-2,1.8-3.7
		C129,79.6,126.8,77.9,122.4,77.9z"/>
	<path class="st0" d="M154.9,105.3h-12.4V72.7h12.4c3.3,0,6.1,0.7,8.3,2c2.3,1.4,3.9,3.2,5,5.7c1.1,2.4,1.7,5.2,1.7,8.4
		c0,5.2-1.3,9.2-3.9,12.1C163.4,103.8,159.7,105.3,154.9,105.3z M155.2,78h-6.4v22.1h6.1c2.8,0,4.9-0.9,6.4-2.7
		c1.5-1.8,2.3-4.7,2.3-8.6c0-3.5-0.7-6.2-2.1-8C160.1,78.9,158,78,155.2,78z"/>
</g>
<g>
	<path class="st1" d="M176.6,105.3c-1,0-1.8-0.3-2.5-1s-1-1.5-1-2.5s0.3-1.8,1-2.5c0.7-0.7,1.5-1,2.5-1s1.8,0.3,2.5,1
		c0.7,0.7,1,1.5,1,2.5s-0.3,1.8-1,2.5S177.6,105.3,176.6,105.3z"/>
	<path class="st1" d="M186.4,88.7l-1.7-5.2c0.8-0.5,2.2-1,4-1.5s3.3-0.6,4.4-0.6c1.9,0,3.6,0.4,5.1,1.1c1.5,0.7,2.8,1.8,3.7,3.1
		c0.9,1.3,1.4,2.8,1.4,4.4v15.3h-4.1l-1.1-2.5c-2,2-4,3.1-6.1,3.1c-2.8,0-4.9-0.7-6.3-2c-1.4-1.4-2.1-3.2-2.1-5.5
		c0-2.4,0.8-4.2,2.4-5.5s3.7-1.9,6.4-1.9h4.6c0-1.2-0.4-2.1-1-2.8c-0.7-0.7-1.6-1-2.7-1c-1.1,0-2.2,0.2-3.5,0.5
		C188.4,87.9,187.3,88.3,186.4,88.7z M188.9,98.4c0,0.7,0.3,1.3,0.8,1.8c0.6,0.5,1.3,0.8,2.1,0.8c1.9,0,3.6-0.8,5.1-2.3v-3.6h-4.7
		c-1,0-1.8,0.3-2.5,1C189.2,96.7,188.9,97.5,188.9,98.4z"/>
	<path class="st1" d="M219.7,82.1l1.9,4.8h-6.1v9.9c0,1.2,0.3,2.3,0.9,3c0.6,0.8,1.4,1.2,2.5,1.2c0.8,0,1.7-0.2,2.5-0.6l1.8,4.5
		c-0.5,0.4-1.2,0.7-2.1,1c-0.9,0.3-1.8,0.4-2.6,0.4c-2.9,0-5.2-0.7-6.8-2.2c-1.6-1.5-2.4-3.5-2.4-6.2v-11h-3.1v-4.8h3.1v-5.5
		l6.2-1.1v6.6H219.7z"/>
</g>
<path class="st1" d="M130.9,15.3c-6.2-0.5-12.9-0.6-16-1.4c-3.1-0.9-4.3-5.6-5.4-7.4c-2.6-4-11.3-4.7-16-4.8
	c-5.1-0.1-16.1-1.5-24.7,8.1c-2,2.2-3.5,4.4-4.8,6.5c0.2,0.3,0.3,0.6,0.5,0.9c0.9,1.7,1.6,3.3,2.4,4.9c0.8,1.6,1.5,3.3,2.3,4.9
	c0.8,1.6,1.6,3.2,2.6,4.7c0.5,0.8,1,1.5,1.5,2.2c0.5,0.7,1.1,1.3,1.7,1.9c0.2,0.1,0.3,0.2,0.5,0.3l0.1,0.1l0.2,0.1
	c0.1,0,0.2,0.1,0.3,0.1c0.4,0.2,0.7,0.3,1.2,0.5c0.8,0.3,1.7,0.4,2.6,0.5c1.8,0.1,3.6-0.1,5.2-0.6c1.6-0.5,3.1-1.3,4.4-2.3
	c1.2-1,2.2-2.2,2.8-3.6c0.3-0.7,0.5-1.4,0.7-2.2c0.1-0.4,0.1-0.8,0.2-1.2l0-0.3l0-0.3l0-0.6c0-1.6,0-3.3-0.2-5
	c-0.1-1.7-0.4-3.4-0.6-5c-0.2-1.7-0.4-3.4-0.6-5.1c-0.1-0.9-0.1-1.7-0.1-2.6c0-0.8,0.1-1.7,0.2-2.5c0.1-0.8,0.4-1.6,0.8-2.4
	c0.4-0.7,1-1.4,1.7-1.9c-0.7,0.5-1.1,1.2-1.4,2c-0.3,0.8-0.4,1.6-0.5,2.4c-0.1,1.6,0.1,3.3,0.3,5c0.3,1.7,0.6,3.4,0.9,5.1
	c0.3,1.7,0.6,3.4,0.9,5.1c0.3,1.7,0.4,3.4,0.5,5.1l0,0.6l0,0.3l0,0.3c0,0.4-0.1,0.9-0.1,1.3c-0.1,0.9-0.4,1.7-0.7,2.5
	c-0.7,1.6-1.7,3.1-3.1,4.3c-1.4,1.2-3.1,2.1-5,2.8c-1.9,0.6-4,1-6.2,0.9c-1.1-0.1-2.2-0.2-3.4-0.6c-0.6-0.2-1.1-0.4-1.7-0.7
	c-0.1-0.1-0.3-0.1-0.4-0.2L74.3,38L74,37.9c-0.3-0.2-0.5-0.4-0.8-0.5c-0.9-0.7-1.6-1.5-2.3-2.3c-0.6-0.8-1.2-1.6-1.7-2.4
	c-1-1.6-1.9-3.3-2.7-4.9c-0.8-1.6-1.6-3.3-2.3-4.9c-0.6-1.3-1.2-2.5-1.8-3.7c-5.2,11.4-0.9,21.4,5.7,27.9
	c12.7,12.5,37.5,18.6,36,30.6c4.7-11.4-24.4-23.9,0.6-35.8c3.6-1.7,28.2-4.4,29.2-18.4C134,23.2,137.1,15.8,130.9,15.3z M103,14.7
	l5.5-4c0,0-1,5.7,0.4,6.1C108.9,16.9,106.5,19.9,103,14.7z M127.4,16.8c0,0-2.9,5,5.4,7C132.8,23.8,123,22.7,127.4,16.8z"/>
</svg>
