<?xml version="1.0" encoding="utf-8"?>
<!-- Generator: Adobe Illustrator 23.1.1, SVG Export Plug-In . SVG Version: 6.00 Build 0)  -->
<svg version="1.1" id="Ebene_1" xmlns="http://www.w3.org/2000/svg" xmlns:xlink="http://www.w3.org/1999/xlink" x="0px" y="0px"
	 viewBox="0 0 296.4 70" style="enable-background:new 0 0 296.4 70;" xml:space="preserve">
<style type="text/css">
	.st0{fill:#1E1E1C;}
	.st1{fill:#E50548;}
</style>
<g>
	<path class="st0" d="M83.5,53.7h-4v9.9h-2.2v-9.9h-3.5v-1.7h9.4L83.5,53.7z"/>
	<path class="st0" d="M92,63.6v-4.9h-4.6v4.9h-2.2V51.9l2.2-0.1v5H92v-4.9h2.2v11.6H92z"/>
	<path class="st0" d="M97.3,63.6V51.9h6.9l0.3,1.7h-5.1v3.1h3.8l0.4,1.8h-4.2v3.3h5.6l0.4,1.7H97.3z"/>
	<path class="st0" d="M107.4,51.9h3.6c1.3,0,2.4,0.3,3.3,0.9c0.9,0.6,1.3,1.5,1.3,2.7c0,0.7-0.2,1.3-0.5,1.8
		c-0.4,0.5-0.8,0.9-1.4,1.2l2.9,5h-2.4l-2.5-4.4h-2.1v4.4h-2.2V51.9z M111,53.8h-1.4v3.6h1.4c0.7,0,1.3-0.1,1.7-0.4
		c0.4-0.3,0.6-0.7,0.6-1.3C113.3,54.4,112.5,53.8,111,53.8z"/>
	<path class="st0" d="M123.5,51.9l4.5,11.5l-2.2,0.3l-1-2.9h-4.4l-1,2.7H117l4.5-11.6H123.5z M122.5,55l-1.5,4.1h3.1L122.5,55z"/>
	<path class="st0" d="M132,63.6h-2.2V51.9h3.6c1.4,0,2.5,0.3,3.3,0.9c0.8,0.6,1.3,1.5,1.3,2.8c0,0.8-0.2,1.6-0.7,2.1s-1,1-1.7,1.3
		c-0.7,0.3-1.5,0.4-2.4,0.4H132V63.6z M133.3,53.8H132v3.9h1.4c0.7,0,1.2-0.2,1.6-0.5c0.4-0.3,0.6-0.8,0.7-1.4
		c0-0.7-0.2-1.2-0.6-1.5C134.7,53.9,134.1,53.8,133.3,53.8z"/>
	<path class="st0" d="M140,63.6V51.9h2.2v11.6H140z"/>
	<path class="st0" d="M145.3,63.6V51.9h6.9l0.3,1.7h-5.1v3.1h3.8l0.4,1.8h-4.2v3.3h5.6l0.4,1.7H145.3z"/>
	<path class="st0" d="M162.2,63.6v-4.9h-4.6v4.9h-2.2V51.9l2.2-0.1v5h4.6v-4.9h2.2v11.6H162.2z"/>
	<path class="st0" d="M169.6,51.9v7.2c0,0.9,0.2,1.6,0.7,2.1c0.5,0.5,1.1,0.7,1.9,0.7s1.4-0.2,1.9-0.7c0.5-0.5,0.7-1.2,0.7-2.1v-7.2
		h2.2v7.4c0,0.8-0.2,1.6-0.6,2.3c-0.4,0.7-1,1.2-1.7,1.6c-0.7,0.4-1.6,0.6-2.5,0.6c-0.9,0-1.8-0.2-2.5-0.6c-0.7-0.4-1.3-0.9-1.7-1.6
		c-0.4-0.7-0.6-1.4-0.6-2.3l0-7.4H169.6z"/>
	<path class="st0" d="M179.8,63.6V51.9h2.2l5.4,7.8v-7.8h2.2v11.6h-2.2l-5.4-7.8v7.8H179.8z"/>
	<path class="st0" d="M197.1,63.6h-4.4V51.9h4.4c1.2,0,2.2,0.2,3,0.7c0.8,0.5,1.4,1.2,1.8,2s0.6,1.9,0.6,3c0,1.8-0.5,3.3-1.4,4.3
		S198.8,63.5,197.1,63.6z M197.2,53.8h-2.3v7.9h2.2c1,0,1.7-0.3,2.3-1c0.5-0.6,0.8-1.7,0.8-3.1c0-1.2-0.2-2.2-0.7-2.9
		S198.2,53.8,197.2,53.8z"/>
	<path class="st0" d="M204.7,63.6V51.9h6.9l0.3,1.7h-5.1v3.1h3.8l0.4,1.8h-4.2v3.3h5.6l0.4,1.7H204.7z"/>
	<path class="st0" d="M223.8,60l-2.8-3.6v7.1h-2.2V51.9h1.4l3.9,5.4l3.6-5.4h1.4v11.6h-2.2v-6.7l-2.2,3.1L223.8,60z"/>
	<path class="st0" d="M232.1,63.6V51.9h2.2v11.6H232.1z"/>
	<path class="st0" d="M245.9,53.7h-4v9.9h-2.2v-9.9h-3.5v-1.7h9.4L245.9,53.7z"/>
	<path class="st0" d="M258.5,63.6v-4.9h-4.6v4.9h-2.2V51.9l2.2-0.1v5h4.6v-4.9h2.2v11.6H258.5z"/>
	<path class="st0" d="M263.8,63.6V51.9h6.9l0.3,1.7H266v3.1h3.8l0.4,1.8H266v3.3h5.6l0.4,1.7H263.8z"/>
	<path class="st0" d="M273.9,51.9h3.6c1.3,0,2.4,0.3,3.3,0.9c0.9,0.6,1.3,1.5,1.3,2.7c0,0.7-0.2,1.3-0.5,1.8
		c-0.4,0.5-0.8,0.9-1.4,1.2l2.9,5h-2.4l-2.5-4.4h-2.1v4.4h-2.2V51.9z M277.5,53.8h-1.4v3.6h1.4c0.7,0,1.3-0.1,1.7-0.4
		c0.4-0.3,0.6-0.7,0.6-1.3C279.8,54.4,279,53.8,277.5,53.8z"/>
	<path class="st0" d="M293,63.6h-9.1l-0.3-1.7l6.6-8.2h-5.9l-0.3-1.7h8.5l0.3,1.7l-6.8,8.2h6.7L293,63.6z"/>
</g>
<g>
	<path class="st0" d="M86.9,27.4l0.5-4.8h11.9v16.1c-1.3,0.7-2.9,1.3-4.7,1.7c-1.8,0.4-3.6,0.7-5.5,0.7c-3.3,0-6.2-0.7-8.6-2.2
		c-2.4-1.5-4.3-3.5-5.6-6.1c-1.3-2.6-2-5.4-2-8.5c0-3.3,0.7-6.2,2.2-8.8c1.5-2.6,3.5-4.6,6.1-6.1c2.6-1.5,5.5-2.2,8.7-2.2
		c1.2,0,2.6,0.2,4.4,0.5C96,8,97.6,8.5,98.9,9.2l-2,4.5c-0.9-0.3-1.3-0.4-1.3-0.4c-1.2-0.4-2.2-0.6-2.9-0.7s-1.6-0.2-2.7-0.2
		c-2,0-3.8,0.4-5.4,1.3c-1.6,0.9-2.9,2.2-3.8,4c-0.9,1.8-1.4,3.9-1.4,6.5c0,2.3,0.4,4.4,1.2,6.2c0.8,1.8,1.9,3.1,3.4,4.1
		c1.5,0.9,3.1,1.4,5,1.4c1.5,0,3.1-0.2,4.8-0.5v-8H86.9z"/>
	<path class="st0" d="M105.6,40.4V7.8h6.2v32.6H105.6z"/>
	<path class="st0" d="M120,7.8h10.2c3.8,0,6.9,0.9,9.3,2.6c2.4,1.7,3.6,4.2,3.6,7.5c0,2-0.5,3.7-1.5,5.1c-1,1.5-2.4,2.6-4.1,3.5
		l8,14h-6.6L132,28.1h-5.9v12.4H120V7.8z M130,13h-3.8v10h3.9c2,0,3.5-0.4,4.7-1.2c1.2-0.8,1.8-2,1.8-3.7
		C136.5,14.7,134.3,13,130,13z"/>
	<path class="st0" d="M164.5,7.8l12.7,32.3l-6.2,0.9l-2.9-8.2h-12.4l-2.9,7.7h-6.2l12.7-32.6H164.5z M161.7,16.3l-4.3,11.4h8.6
		L161.7,16.3z"/>
	<path class="st0" d="M181.8,7.8H192c3.8,0,6.9,0.9,9.3,2.6c2.4,1.7,3.6,4.2,3.6,7.5c0,2-0.5,3.7-1.5,5.1c-1,1.5-2.4,2.6-4.1,3.5
		l8,14h-6.6l-6.9-12.4h-5.9v12.4h-6.2V7.8z M191.8,13h-3.8v10h3.9c2,0,3.5-0.4,4.7-1.2c1.2-0.8,1.8-2,1.8-3.7
		C198.3,14.7,196.1,13,191.8,13z"/>
	<path class="st0" d="M224.3,40.4h-12.4V7.8h12.4c3.3,0,6.1,0.7,8.3,2c2.3,1.4,3.9,3.2,5,5.7c1.1,2.4,1.7,5.2,1.7,8.4
		c0,5.2-1.3,9.2-3.9,12.1C232.8,38.9,229.1,40.4,224.3,40.4z M224.5,13.1h-6.4v22.1h6.1c2.8,0,4.9-0.9,6.4-2.7
		c1.5-1.8,2.3-4.7,2.3-8.6c0-3.5-0.7-6.2-2.1-8C229.4,14,227.3,13.1,224.5,13.1z"/>
</g>
<g>
	<path class="st1" d="M246,40.4c-1,0-1.8-0.3-2.5-1s-1-1.5-1-2.5s0.3-1.8,1-2.5c0.7-0.7,1.5-1,2.5-1s1.8,0.3,2.5,1
		c0.7,0.7,1,1.5,1,2.5s-0.3,1.8-1,2.5S247,40.4,246,40.4z"/>
	<path class="st1" d="M255.8,23.8l-1.7-5.2c0.8-0.5,2.2-1,4-1.5s3.3-0.6,4.4-0.6c1.9,0,3.6,0.4,5.1,1.1c1.5,0.7,2.8,1.8,3.7,3.1
		c0.9,1.3,1.4,2.8,1.4,4.4v15.3h-4.1l-1.1-2.5c-2,2-4,3.1-6.1,3.1c-2.8,0-4.9-0.7-6.3-2c-1.4-1.4-2.1-3.2-2.1-5.5
		c0-2.4,0.8-4.2,2.4-5.5s3.7-1.9,6.4-1.9h4.6c0-1.2-0.4-2.1-1-2.8c-0.7-0.7-1.6-1-2.7-1c-1.1,0-2.2,0.2-3.5,0.5
		C257.8,23,256.7,23.4,255.8,23.8z M258.2,33.5c0,0.7,0.3,1.3,0.8,1.8c0.6,0.5,1.3,0.8,2.1,0.8c1.9,0,3.6-0.8,5.1-2.3v-3.6h-4.7
		c-1,0-1.8,0.3-2.5,1C258.6,31.8,258.2,32.6,258.2,33.5z"/>
	<path class="st1" d="M289.1,17.2L291,22h-6.1v9.9c0,1.2,0.3,2.3,0.9,3c0.6,0.8,1.4,1.2,2.5,1.2c0.8,0,1.7-0.2,2.5-0.6l1.8,4.5
		c-0.5,0.4-1.2,0.7-2.1,1c-0.9,0.3-1.8,0.4-2.6,0.4c-2.9,0-5.2-0.7-6.8-2.2c-1.6-1.5-2.4-3.5-2.4-6.2V22h-3.1v-4.8h3.1v-5.5l6.2-1.1
		v6.6H289.1z"/>
</g>
<path class="st1" d="M63.4,14.1c-5.3-0.5-11.1-0.5-13.8-1.2C47,12.2,46,8.1,45,6.5c-2.2-3.4-9.7-4.1-13.8-4.2
	c-4.4-0.1-13.9-1.3-21.2,7c-1.7,1.9-3,3.8-4.1,5.6c0.1,0.3,0.3,0.5,0.4,0.8C7,17.2,7.7,18.6,8.4,20c0.7,1.4,1.3,2.8,2,4.2
	c0.7,1.4,1.4,2.8,2.2,4.1c0.4,0.7,0.8,1.3,1.3,1.9c0.5,0.6,1,1.2,1.5,1.6c0.1,0.1,0.3,0.2,0.4,0.3l0.1,0.1l0.1,0.1
	c0.1,0,0.1,0.1,0.2,0.1c0.3,0.2,0.6,0.3,1,0.4c0.7,0.2,1.5,0.3,2.2,0.4c1.5,0.1,3.1-0.1,4.5-0.6c1.4-0.4,2.7-1.1,3.8-2
	c1.1-0.9,1.9-1.9,2.4-3.1c0.3-0.6,0.5-1.2,0.6-1.9c0.1-0.3,0.1-0.7,0.1-1l0-0.3l0-0.3l0-0.5c0-1.4,0-2.8-0.2-4.3
	c-0.1-1.4-0.3-2.9-0.5-4.3c-0.2-1.5-0.4-2.9-0.5-4.4c-0.1-0.7-0.1-1.5-0.1-2.2c0-0.7,0.1-1.5,0.2-2.2c0.1-0.7,0.3-1.4,0.7-2
	c0.3-0.6,0.8-1.2,1.5-1.6c-0.6,0.5-1,1.1-1.2,1.7c-0.3,0.6-0.4,1.3-0.4,2c-0.1,1.4,0.1,2.9,0.3,4.3c0.2,1.4,0.5,2.9,0.8,4.4
	c0.3,1.5,0.6,2.9,0.8,4.4c0.2,1.5,0.4,3,0.4,4.4l0,0.6l0,0.3l0,0.3c0,0.4,0,0.8-0.1,1.1c-0.1,0.8-0.3,1.5-0.6,2.2
	c-0.6,1.4-1.5,2.7-2.7,3.7c-1.2,1-2.7,1.8-4.3,2.4c-1.6,0.5-3.4,0.8-5.3,0.7c-0.9,0-1.9-0.2-2.9-0.5c-0.5-0.1-1-0.3-1.4-0.6
	c-0.1-0.1-0.2-0.1-0.4-0.2l-0.1-0.1l-0.2-0.1c-0.2-0.1-0.4-0.3-0.6-0.5c-0.8-0.6-1.4-1.3-1.9-2c-0.5-0.7-1-1.4-1.4-2.1
	c-0.9-1.4-1.6-2.8-2.3-4.2c-0.7-1.4-1.4-2.8-2-4.2c-0.5-1.1-1-2.2-1.5-3.2c-4.4,9.8-0.7,18.4,4.9,24c10.9,10.8,32.3,16,30.9,26.3
	c4-9.8-21-20.6,0.5-30.8C44.1,35.3,65.3,33,66.1,21C66.1,21,68.8,14.6,63.4,14.1z M39.4,13.7l4.7-3.4c0,0-0.8,4.9,0.4,5.2
	C44.5,15.5,42.5,18.1,39.4,13.7z M60.5,15.5c0,0-2.5,4.3,4.6,6C65.1,21.5,56.7,20.6,60.5,15.5z"/>
</svg>
