<?xml version="1.0" encoding="UTF-8"?>
<svg width="13px" height="18px" viewBox="0 0 13 18" version="1.1" xmlns="http://www.w3.org/2000/svg" xmlns:xlink="http://www.w3.org/1999/xlink">
    <!-- Generator: Sketch 59.1 (86144) - https://sketch.com -->
    <title>file-pdf-light</title>
    <desc>Created with Sketch.</desc>
    <g id="Page-1" stroke="none" stroke-width="1" fill="none" fill-rule="evenodd">
        <g id="file-pdf-light" fill="#333333" fill-rule="nonzero">
            <path d="M12.5226562,3.34817708 L9.68229167,0.5078125 C9.37760417,0.203125 8.96458333,0.03046875 8.53463542,0.03046875 L1.625,0.03046875 C0.727864583,0.0338541667 0,0.76171875 0,1.65885417 L0,15.7421875 C0,16.6393229 0.727864583,17.3671875 1.625,17.3671875 L11.375,17.3671875 C12.2721354,17.3671875 13,16.6393229 13,15.7421875 L13,4.49921875 C13,4.06927083 12.8273437,3.65286458 12.5226562,3.34817708 Z M11.7575521,4.11666667 C11.8286458,4.18776042 11.8760417,4.27239583 11.8997396,4.3671875 L8.66666667,4.3671875 L8.66666667,1.13411458 C8.76145833,1.1578125 8.84609375,1.20520833 8.9171875,1.27630208 L11.7575521,4.11666667 Z M11.375,16.2838542 L1.625,16.2838542 C1.32708333,16.2838542 1.08333333,16.0401042 1.08333333,15.7421875 L1.08333333,1.65885417 C1.08333333,1.3609375 1.32708333,1.1171875 1.625,1.1171875 L7.58333333,1.1171875 L7.58333333,4.63802083 C7.58333333,5.08828125 7.94557292,5.45052083 8.39583333,5.45052083 L11.9166667,5.45052083 L11.9166667,15.7421875 C11.9166667,16.0401042 11.6729167,16.2838542 11.375,16.2838542 Z M10.6302083,10.4880208 C10.1731771,10.0377604 8.76822917,10.1765625 8.13515625,10.2611979 C7.41744792,9.82786458 6.94348958,9.23203125 6.60833333,8.34505208 C6.75390625,7.73567708 7.01458333,6.74713542 6.825,6.14791667 C6.67604167,5.19661458 5.48098958,5.31171875 5.31510417,5.91770833 C5.14583333,6.53723958 5.30494792,7.42083333 5.59947917,8.5515625 C5.19661458,9.51302083 4.59401042,10.8164063 4.17421875,11.5510417 C3.47005208,11.9132813 2.34270833,12.5429688 2.18359375,13.325 C2.06510417,13.89375 2.95885417,14.6588542 3.98125,13.5416667 C4.28932292,13.2065104 4.63463542,12.7020833 5.04088542,12.0013021 C5.94479167,11.7033854 6.94010417,11.3309896 7.81692708,11.1888021 C8.55833333,11.5950521 9.42838542,11.8625 10.0039063,11.8625 C10.9416667,11.8658854 10.9822917,10.8401042 10.6302083,10.4880208 L10.6302083,10.4880208 Z M2.87083333,13.5010417 C3.07057292,12.9627604 3.8390625,12.3364583 4.07265625,12.1197917 C3.32447917,13.3148438 2.87083333,13.5247396 2.87083333,13.5010417 Z M6.09375,5.97526042 C6.38828125,5.97526042 6.3578125,7.24479167 6.16484375,7.58671875 C5.98880208,7.03489583 5.99557292,5.97526042 6.09375,5.97526042 Z M5.13229167,11.3682292 C5.51484375,10.6979167 5.84322917,9.90572917 6.10729167,9.21171875 C6.43567708,9.8109375 6.85546875,10.2848958 7.29557292,10.6166667 C6.47291667,10.7757813 5.75859375,11.1278646 5.13229167,11.3682292 Z M10.3255208,11.1684896 C10.3255208,11.1684896 10.1291667,11.4054688 8.85286458,10.8604167 C10.2408854,10.7588542 10.4677083,11.0770833 10.3255208,11.1684896 Z" id="Shape"></path>
        </g>
    </g>
</svg>