<?xml version="1.0" encoding="UTF-8"?>
<svg width="10px" height="10px" viewBox="0 0 10 10" version="1.1" xmlns="http://www.w3.org/2000/svg" xmlns:xlink="http://www.w3.org/1999/xlink">
    <!-- Generator: Sketch 59.1 (86144) - https://sketch.com -->
    <title>angle-double-right-regular</title>
    <desc>Created with Sketch.</desc>
    <g id="Page-1" stroke="none" stroke-width="1" fill="none" fill-rule="evenodd">
        <g id="angle-double-right-regular" fill="#FFFFFF" fill-rule="nonzero">
            <path d="M9.6572053,5.1863764 L5.79273382,9.08243756 C5.66900756,9.20616383 5.46893955,9.20616383 5.34521329,9.08243756 L4.82398348,8.56120776 C4.70025721,8.43748149 4.70025721,8.23741348 4.82398348,8.11368722 L7.94346488,4.96261613 L4.82398348,1.81154504 C4.70025721,1.68781878 4.70025721,1.48775077 4.82398348,1.3640245 L5.34521329,0.8427947 C5.46893955,0.719068433 5.66900756,0.719068433 5.79273382,0.8427947 L9.6572053,4.73885586 C9.78093157,4.86258213 9.78093157,5.06265013 9.6572053,5.1863764 Z M5.44524729,4.73885586 L1.58077581,0.8427947 C1.45704955,0.719068433 1.25698154,0.719068433 1.13325527,0.8427947 L0.612025469,1.3640245 C0.488299203,1.48775077 0.488299203,1.68781878 0.612025469,1.81154504 L3.73150687,4.96261613 L0.612025469,8.11368722 C0.488299203,8.23741348 0.488299203,8.43748149 0.612025469,8.56120776 L1.13325527,9.08243756 C1.25698154,9.20616383 1.45704955,9.20616383 1.58077581,9.08243756 L5.44524729,5.1863764 C5.56897355,5.06265013 5.56897355,4.86258213 5.44524729,4.73885586 Z" id="Shape"></path>
        </g>
    </g>
</svg>